<?xml version="1.0" standalone="no"?>
<!DOCTYPE svg PUBLIC "-//W3C//DTD SVG 20010904//EN"
 "http://www.w3.org/TR/2001/REC-SVG-20010904/DTD/svg10.dtd">
<svg version="1.0" xmlns="http://www.w3.org/2000/svg"
 width="1024.000000pt" height="1024.000000pt" viewBox="0 0 1024.000000 1024.000000"
 preserveAspectRatio="xMidYMid meet">
<metadata>
Created by potrace 1.14, written by Peter Selinger 2001-2017
</metadata>
<g transform="translate(0.000000,1024.000000) scale(0.100000,-0.100000)"
fill="#000000" stroke="none">
<path d="M6235 9313 c-226 -46 -553 -239 -865 -510 -14 -12 -36 -31 -49 -42
-28 -25 -39 -26 -60 -7 -17 14 -239 156 -245 156 -2 0 -33 17 -67 38 -35 21
-98 57 -139 78 -41 22 -84 46 -95 52 -58 33 -243 116 -329 147 -235 85 -367
91 -506 23 -130 -63 -196 -160 -228 -333 -7 -42 -8 -293 -1 -379 3 -38 1 -49
-11 -51 -8 -2 -31 -5 -50 -8 -220 -36 -455 -113 -640 -210 -52 -27 -97 -53
-100 -56 -3 -3 -21 -14 -40 -24 -124 -63 -380 -296 -500 -456 -14 -18 -30 -38
-35 -44 -46 -51 -182 -281 -255 -430 -132 -271 -213 -496 -245 -687 -3 -19 -8
-42 -10 -50 -2 -8 -7 -33 -9 -55 -3 -22 -10 -76 -16 -120 -27 -210 -31 -720
-6 -920 2 -16 7 -70 11 -120 3 -49 8 -108 11 -130 2 -22 6 -62 9 -90 13 -127
19 -180 39 -345 8 -69 18 -150 21 -180 4 -30 8 -66 10 -80 3 -24 9 -68 20
-170 3 -25 7 -65 10 -90 3 -25 8 -74 11 -110 3 -36 7 -76 9 -89 18 -106 24
-506 10 -691 -15 -193 -10 -505 10 -562 2 -7 6 -26 9 -43 18 -113 74 -324 101
-378 8 -17 15 -34 15 -40 0 -24 155 -318 172 -325 4 -2 8 -8 8 -14 0 -11 47
-81 79 -117 12 -13 21 -27 21 -31 0 -13 211 -223 280 -280 36 -29 67 -56 70
-59 11 -13 70 -51 80 -51 5 0 10 -4 10 -10 0 -5 4 -10 10 -10 5 0 35 -16 66
-36 129 -83 409 -199 554 -230 51 -11 51 -11 95 -18 22 -4 47 -8 55 -11 17 -5
95 -15 160 -20 75 -7 332 -7 385 0 63 8 233 33 260 39 11 2 43 10 70 16 28 6
57 13 65 15 128 29 319 101 500 187 107 50 303 156 335 180 6 4 53 36 105 70
52 35 100 67 106 73 7 5 24 19 40 30 41 30 196 153 246 197 13 11 59 52 102
91 106 96 114 103 166 146 25 20 52 43 60 52 8 8 38 33 65 55 77 60 85 67 120
97 18 15 35 27 38 27 3 0 20 13 39 30 42 37 347 261 601 442 86 62 501 362
515 373 7 5 18 15 25 20 7 6 30 23 52 40 22 16 46 35 53 42 7 7 16 13 20 13 4
0 21 12 37 28 26 23 98 83 158 132 155 124 383 351 499 497 106 133 172 237
242 384 117 243 180 467 212 754 5 42 4 353 -1 395 -11 93 -32 234 -39 265 -2
6 -6 28 -10 50 -10 51 -17 75 -61 210 -57 170 -106 281 -208 465 -31 56 -142
223 -181 272 -11 14 -31 39 -43 55 -12 15 -30 38 -40 50 -56 67 -56 66 -44 82
24 34 161 314 197 403 130 324 123 529 -23 676 -87 88 -214 132 -453 159 -63
7 -542 6 -670 -2 -186 -10 -186 -10 -187 8 -4 60 -92 423 -117 482 -8 16 -19
46 -26 65 -13 35 -88 192 -115 240 -43 76 -140 187 -205 235 -97 71 -117 78
-225 80 -55 2 -109 1 -120 -2z"/>
</g>
</svg>
