<?xml version="1.0" standalone="no"?>
<!DOCTYPE svg PUBLIC "-//W3C//DTD SVG 20010904//EN"
 "http://www.w3.org/TR/2001/REC-SVG-20010904/DTD/svg10.dtd">
<svg version="1.0" xmlns="http://www.w3.org/2000/svg"
 width="1024.000000pt" height="1024.000000pt" viewBox="0 0 1024.000000 1024.000000"
 preserveAspectRatio="xMidYMid meet">
<metadata>
Created by potrace 1.14, written by Peter Selinger 2001-2017
</metadata>
<g transform="translate(0.000000,1024.000000) scale(0.100000,-0.100000)"
fill="#000000" stroke="none">
<path d="M2028 9205 c-2 -2 -16 -5 -33 -7 -50 -6 -104 -38 -148 -88 -34 -39
-115 -90 -149 -94 -4 -1 -13 -7 -19 -13 -7 -7 -21 -13 -30 -13 -10 0 -20 -4
-23 -9 -3 -5 -33 -23 -67 -41 -33 -17 -85 -47 -114 -66 -30 -19 -57 -34 -60
-34 -3 0 -11 -4 -18 -10 -7 -5 -67 -49 -133 -97 -211 -152 -301 -233 -434
-386 -47 -54 -93 -108 -104 -119 -63 -69 -207 -317 -262 -453 -18 -42 -51
-136 -59 -162 -18 -66 -54 -244 -62 -312 -10 -83 -10 -386 -1 -466 13 -105 19
-149 28 -200 5 -27 12 -66 15 -85 3 -19 11 -53 16 -75 6 -22 12 -47 14 -55 20
-102 97 -321 155 -441 141 -287 379 -551 625 -694 73 -42 191 -98 263 -125 35
-13 65 -28 67 -34 2 -6 6 -90 10 -186 7 -230 16 -366 40 -600 3 -25 7 -70 10
-100 7 -65 15 -135 20 -170 12 -78 26 -158 30 -180 8 -35 25 -120 31 -150 5
-22 25 -98 54 -205 5 -16 13 -46 20 -65 6 -19 13 -42 15 -50 10 -41 101 -253
133 -310 20 -36 40 -72 44 -80 3 -8 31 -50 61 -94 210 -304 512 -512 962 -664
85 -28 172 -55 187 -56 3 -1 9 -4 13 -8 7 -6 28 -104 39 -173 3 -22 8 -51 11
-65 8 -33 24 -118 31 -155 5 -31 64 -332 68 -350 4 -15 17 -78 20 -95 14 -79
94 -163 181 -188 30 -9 460 -12 1656 -12 1754 0 1669 -3 1744 54 63 49 101
144 131 332 3 20 7 44 9 53 19 97 75 382 78 401 3 14 13 64 22 111 l17 86 122
37 c579 178 931 445 1154 875 51 99 144 328 157 388 2 10 13 50 24 88 54 194
106 497 131 770 6 66 13 136 15 155 2 19 7 89 10 155 4 66 8 136 10 155 2 19
5 97 6 173 l2 139 26 9 c40 15 45 16 54 17 4 1 24 10 45 21 20 11 71 36 112
56 285 141 551 423 704 745 76 162 156 409 181 560 3 19 10 62 16 95 27 152
36 281 34 460 -2 105 -6 204 -9 220 -4 17 -11 57 -17 90 -50 289 -192 601
-375 824 -153 187 -264 296 -429 422 -186 142 -356 249 -548 344 -99 49 -138
74 -169 110 -65 74 -155 102 -261 82 -81 -15 -165 -93 -188 -175 -38 -136 14
-256 137 -317 59 -29 63 -33 98 -110 49 -105 111 -290 131 -390 31 -154 23
-344 -21 -477 -40 -123 -122 -254 -218 -348 l-46 -44 -24 19 c-272 221 -422
319 -713 464 -367 184 -843 341 -1336 441 -117 24 -124 25 -257 44 -233 33
-381 43 -590 40 -130 -2 -178 -4 -342 -19 -83 -7 -203 -22 -253 -31 -10 -2
-37 -6 -60 -9 -22 -4 -56 -10 -75 -15 -19 -5 -51 -12 -70 -15 -236 -40 -778
-198 -975 -284 -33 -15 -140 -56 -145 -56 -13 -1 -384 -188 -445 -225 -136
-83 -261 -170 -380 -264 -65 -53 -122 -96 -125 -96 -12 0 -135 134 -167 180
-170 251 -193 552 -68 909 20 58 53 139 73 180 31 64 43 79 77 95 67 31 113
74 141 131 84 173 -29 364 -223 380 -18 2 -33 1 -35 0z"/>
</g>
</svg>
